<svg width="512" height="512" viewBox="0 0 512 512" fill="none" xmlns="http://www.w3.org/2000/svg">
<g clip-path="url(#clip0)">
<path d="M352.014 80.741C338.797 93.958 314.67 139.811 314.67 139.811L312.836 138.987L236.397 104.497C220.563 59.375 225.796 20.074 241.476 20.074C256.908 20.074 273.617 58.366 274.143 59.561C273.927 58.108 265.345 1.48001 291.141 1.48001C302.937 1.48001 309.406 10.339 312.96 20.064C317.276 31.89 317.276 44.994 317.276 44.994C317.276 44.994 336.829 0.562011 360.389 7.09401C383.939 13.625 365.241 67.524 352.014 80.741Z" fill="#95D6A4"/>
<path d="M308.787 123.555C311.579 129.643 312.846 134.753 312.836 138.987L236.397 104.497C220.563 59.375 225.796 20.074 241.476 20.074C256.908 20.074 273.617 58.366 274.143 59.561C273.927 58.108 265.345 1.48001 291.141 1.48001C302.937 1.48001 309.406 10.339 312.96 20.064L312.95 20.074C303.884 1.47901 277.419 55.08 308.787 123.555Z" fill="#78C2A4"/>
<path d="M429.497 254.506C503.976 180.027 533.384 88.6819 495.182 50.48C456.98 12.278 365.634 41.686 291.156 116.164C216.677 190.643 187.269 281.989 225.471 320.19C263.673 358.392 355.019 328.984 429.497 254.506Z" fill="#E49542"/>
<path d="M225.513 320.187C187.306 281.98 216.721 190.619 291.204 116.135C365.694 41.644 457.056 12.23 495.263 50.437C479.179 34.353 405.752 81.702 331.261 156.193C256.777 230.676 209.428 304.103 225.513 320.187Z" fill="#E28424"/>
<path d="M455.967 145.866L399.835 89.734C393.37 83.269 382.888 83.269 376.422 89.734C369.957 96.199 369.957 106.681 376.422 113.147L432.554 169.279C439.019 175.744 449.501 175.744 455.967 169.279C462.432 162.814 462.432 152.332 455.967 145.866Z" fill="#E28424"/>
<path d="M391.791 210.042L335.659 153.91C329.194 147.445 318.712 147.445 312.246 153.91C305.781 160.375 305.781 170.857 312.246 177.323L368.378 233.455C374.843 239.92 385.325 239.92 391.791 233.455C398.256 226.99 398.256 216.508 391.791 210.042Z" fill="#E28424"/>
<path d="M227.908 132.322C227.208 143.602 225.384 166.658 221.346 188.147C219.76 196.543 214.052 203.528 206.172 206.814C199.095 209.76 191.471 214.654 191.471 222.009C191.471 224.358 191.935 226.459 192.759 228.334H84.261C85.085 226.459 85.549 224.358 85.549 222.009C85.549 214.654 77.926 209.76 70.848 206.814C62.967 203.528 57.26 196.543 55.684 188.147C51.635 166.657 49.812 143.602 49.111 132.322C48.802 127.429 49.904 122.546 52.346 118.291C70.518 86.706 107.285 66.751 107.285 66.751V15.964H169.745V66.752C169.745 66.752 206.512 86.707 224.674 118.292C227.125 122.546 228.217 127.429 227.908 132.322Z" fill="#80B4FB"/>
<path d="M107.285 32.189H169.745V50.662H107.285V32.189Z" fill="#61A2F9"/>
<path d="M124.777 29.575V66.741C124.777 66.741 98.25 86.706 87.495 118.291C86.043 122.535 85.394 127.429 85.579 132.322C86.001 143.592 87.073 166.647 89.473 188.147C90.4 196.533 93.779 203.528 98.456 206.814C102.638 209.76 107.151 214.654 107.151 222.009C107.151 224.358 106.883 226.459 106.389 228.334H84.261C85.085 226.459 85.549 224.358 85.549 222.009C85.549 214.654 77.926 209.76 70.848 206.814C62.967 203.528 57.26 196.533 55.684 188.147C51.625 166.657 49.812 143.592 49.111 132.322C48.802 127.429 49.894 122.535 52.346 118.291C70.508 86.706 107.285 66.741 107.285 66.741V37.773L124.777 29.575Z" fill="#61A2F9"/>
<path d="M162.535 2.36601H114.49C106.982 2.36601 100.895 8.45301 100.895 15.961V37.775H176.13V15.961C176.13 8.45301 170.043 2.36601 162.535 2.36601Z" fill="#DB5C6E"/>
<path d="M141.438 2.37003C133.931 2.37003 127.841 8.45002 127.841 15.957V37.775H100.895V15.957C100.895 8.45002 106.985 2.37003 114.492 2.37003H141.438Z" fill="#D64553"/>
<path d="M482.588 274.62C482.588 274.62 482.135 289.64 480.641 313.004C478.478 346.742 474.151 397.88 465.889 446.319C459.574 483.364 427.577 510.52 389.996 510.52H122.006C84.4249 510.52 52.4279 483.365 46.1129 446.319C37.8509 397.88 33.5239 346.742 31.3609 313.004C29.8669 289.64 29.4139 274.62 29.4139 274.62H482.588Z" fill="#DB5C6E"/>
<path d="M482.588 274.62C482.588 274.62 482.135 289.64 480.641 313.004C478.261 313.519 475.809 313.808 473.306 313.859C328.432 316.64 183.569 316.64 38.695 313.859C36.192 313.807 33.74 313.519 31.36 313.004C29.866 289.64 29.413 274.62 29.413 274.62H482.588Z" fill="#D64553"/>
<path d="M155.116 510.521H122.006C84.4249 510.521 52.4279 483.366 46.1129 446.32C32.1339 364.349 29.4139 274.62 29.4139 274.62H85.4039C85.4039 274.62 87.4539 364.348 97.9719 446.319C102.732 483.365 126.817 510.521 155.116 510.521Z" fill="#D64553"/>
<path d="M325.272 109.279C272.968 103.655 220.664 102.996 168.36 107.301C161.413 107.873 158.818 112.883 151.871 113.63C145.353 171.546 141.002 225.111 147.52 283.027C206.771 289.398 266.022 289.398 325.273 283.027C331.79 225.111 331.79 167.195 325.272 109.279Z" fill="#EDEDED"/>
<path d="M168.36 285.006C161.417 284.439 154.463 283.78 147.52 283.028C140.999 225.111 140.999 167.195 147.52 109.279C154.463 108.537 161.417 107.878 168.36 107.301C161.922 166.536 161.922 225.771 168.36 285.006Z" fill="#DBDBDB"/>
<path d="M473.302 292.947C328.435 295.731 183.568 295.731 38.7 292.947C20.688 292.601 5.31195 279.779 1.72995 262.123C-0.574047 250.764 -0.574047 239.405 1.72995 228.046C5.31195 210.39 20.687 197.568 38.7 197.222C183.567 194.438 328.434 194.438 473.302 197.222C491.314 197.568 506.69 210.39 510.272 228.046C512.576 239.405 512.576 250.764 510.272 262.123C506.69 279.779 491.314 292.601 473.302 292.947Z" fill="#FFD064"/>
<path d="M75.728 293.586C63.387 293.401 51.035 293.184 38.693 292.947C20.685 292.597 5.30502 279.781 1.73002 262.124C-0.577977 250.761 -0.577977 239.409 1.73002 228.046C5.30502 210.389 20.685 197.563 38.693 197.223C51.034 196.986 63.386 196.77 75.728 196.584C61.027 200.231 49.335 212.057 46.234 227.397C43.834 239.193 43.834 250.978 46.234 262.763C49.335 278.102 61.028 289.939 75.728 293.586Z" fill="#FFC250"/>
<path d="M153.854 336.932C153.693 336.932 153.532 336.932 153.37 336.932C139.934 336.964 128.97 347.802 128.567 361.232C127.941 382.125 127.941 403.018 128.567 423.911C128.97 437.341 139.934 448.179 153.37 448.211H153.854C167.29 448.179 178.254 437.341 178.657 423.911C179.283 403.018 179.283 382.125 178.657 361.232C178.255 347.802 167.291 336.964 153.854 336.932Z" fill="#365E7D"/>
<path d="M256.243 336.932C256.082 336.932 255.921 336.932 255.759 336.932C242.323 336.964 231.359 347.802 230.956 361.232C230.33 382.125 230.33 403.018 230.956 423.911C231.359 437.341 242.323 448.179 255.759 448.211H256.243C269.679 448.179 280.643 437.341 281.046 423.911C281.672 403.018 281.672 382.125 281.046 361.232C280.643 347.802 269.679 336.964 256.243 336.932Z" fill="#365E7D"/>
<path d="M358.632 336.932C358.471 336.932 358.31 336.932 358.148 336.932C344.712 336.964 333.748 347.802 333.345 361.232C332.719 382.125 332.719 403.018 333.345 423.911C333.748 437.341 344.712 448.179 358.148 448.211H358.632C372.068 448.179 383.032 437.341 383.435 423.911C384.061 403.018 384.061 382.125 383.435 361.232C383.032 347.802 372.068 336.964 358.632 336.932Z" fill="#365E7D"/>
<path d="M126.684 231.458C121.254 228.714 115.577 226.647 109.653 225.259C97.42 222.393 84.975 229.146 80.386 240.842C57.469 299.246 36.017 358.183 16.032 417.654C12.03 429.563 17.222 442.736 28.435 448.404C33.865 451.148 39.542 453.215 45.466 454.603C57.699 457.469 70.144 450.716 74.733 439.02C97.65 380.616 119.102 321.679 139.087 262.208C143.09 250.298 137.898 237.125 126.684 231.458Z" fill="#407093"/>
<path d="M35.503 451.538C33.097 450.618 30.737 449.573 28.432 448.405C17.216 442.744 12.026 429.563 16.031 417.657C36.02 358.19 57.47 299.255 80.386 240.843C84.971 229.148 97.416 222.397 109.65 225.26C112.166 225.847 114.633 226.569 117.057 227.408C109.106 229.524 102.305 235.348 99.125 243.454C75.249 304.324 52.897 365.737 32.064 427.703C29.287 435.966 30.76 444.812 35.503 451.538Z" fill="#365E7D"/>
<path d="M402.351 225.255C396.427 226.643 390.75 228.709 385.32 231.454C374.107 237.121 368.915 250.294 372.917 262.204C392.903 321.675 414.354 380.612 437.271 439.016C441.86 450.712 454.305 457.465 466.538 454.599C472.462 453.211 478.139 451.145 483.569 448.4C494.782 442.733 499.974 429.56 495.972 417.65C475.986 358.179 454.535 299.242 431.618 240.838C427.029 229.142 414.584 222.388 402.351 225.255Z" fill="#407093"/>
<path d="M473.967 452.455C471.533 453.297 469.053 454.013 466.537 454.6C454.307 457.473 441.859 450.712 437.273 439.017C414.361 380.614 392.91 321.679 372.918 262.203C368.913 250.297 374.107 237.126 385.319 231.455C387.624 230.287 389.978 229.255 392.374 228.339C387.643 235.071 386.177 243.903 388.951 252.157C409.787 314.133 432.14 375.546 456.012 436.406C459.195 444.522 466.01 450.352 473.967 452.455Z" fill="#365E7D"/>
<path d="M174.658 45.275H102.367C98.2249 45.275 94.8669 41.917 94.8669 37.775C94.8669 33.633 98.2249 30.275 102.367 30.275H174.658C178.8 30.275 182.158 33.633 182.158 37.775C182.158 41.917 178.8 45.275 174.658 45.275Z" fill="#DB5C6E"/>
<path d="M124.887 45.275H102.367C98.2169 45.275 94.8669 41.915 94.8669 37.775C94.8669 33.635 98.2169 30.275 102.367 30.275H124.887C120.737 30.275 117.387 33.635 117.387 37.775C117.387 41.915 120.737 45.275 124.887 45.275Z" fill="#D64553"/>
</g>
<defs>
<clipPath id="clip0">
<rect width="512" height="512" fill="white"/>
</clipPath>
</defs>
</svg>
