<svg width="1440" height="1024" viewBox="0 0 1440 1024" fill="none" xmlns="http://www.w3.org/2000/svg">
<path d="M0 0H1440V1024H0V0Z" fill="#22223B"/>
<rect width="1440" height="249" fill="#FFB793"/>
<path d="M0 215.829C0 215.829 289 186.159 514.5 215.829C740 245.5 851.5 255.5 1071 215.829C1290.5 176.159 1440 215.829 1440 215.829V563H0V215.829Z" fill="#FFE3A4"/>
<path d="M0 487.335C0 487.335 244 454.562 514.5 487.335C785 520.109 933.146 544.321 1159.5 538C1385.85 531.679 1440 487.335 1440 487.335V691H0V487.335Z" fill="#8A92A6"/>
<path d="M0 647.876C0 647.876 198 654.543 468.5 684.816C739 715.089 837.146 612.338 1063.5 606.5C1289.85 600.662 1440 647.876 1440 647.876V836H0V647.876Z" fill="#006692"/>
<path d="M0 733.667C0 733.667 148.5 691.667 419 733.667C689.5 775.667 768.146 813.766 994.5 805.667C1170.62 799.364 1440 733.667 1440 733.667V994.667H0V733.667Z" fill="#1A3A50"/>
<path d="M0 885.878C0 885.878 198 890.774 468.5 913C739 935.226 837.146 859.786 1063.5 855.5C1289.85 851.214 1440 885.878 1440 885.878V1024H0V885.878Z" fill="#22223B"/>
</svg>
